<svg width="40" height="18" viewBox="0 0 40 18" fill="none" xmlns="http://www.w3.org/2000/svg">
<path d="M10.5664 10.7695H3.69922V18H0.734375V0.9375H11.5742V3.32812H3.69922V8.40234H10.5664V10.7695ZM17.8836 18H15.0359V0H17.8836V18ZM25.2242 18H22.3766V5.32031H25.2242V18ZM22.2008 2.02734C22.2008 1.58984 22.3375 1.22656 22.6109 0.9375C22.8922 0.648437 23.2906 0.503906 23.8062 0.503906C24.3219 0.503906 24.7203 0.648437 25.0016 0.9375C25.2828 1.22656 25.4234 1.58984 25.4234 2.02734C25.4234 2.45703 25.2828 2.81641 25.0016 3.10547C24.7203 3.38672 24.3219 3.52734 23.8062 3.52734C23.2906 3.52734 22.8922 3.38672 22.6109 3.10547C22.3375 2.81641 22.2008 2.45703 22.2008 2.02734ZM34.0883 9.49219L36.5023 5.32031H39.6664L35.7875 11.5664L39.7953 18H36.6547L34.1234 13.6641L31.6039 18H28.4398L32.4477 11.5664L28.5805 5.32031H31.7211L34.0883 9.49219Z" fill="#E1E4E8"/>
</svg>
